<?xml version="1.0" standalone="no"?>
<!DOCTYPE svg PUBLIC "-//W3C//DTD SVG 20010904//EN"
 "http://www.w3.org/TR/2001/REC-SVG-20010904/DTD/svg10.dtd">
<svg version="1.0" xmlns="http://www.w3.org/2000/svg"
 width="500.000000pt" height="500.000000pt" viewBox="0 0 500.000000 500.000000"
 preserveAspectRatio="xMidYMid meet">
<metadata>
Created by potrace 1.11, written by Peter Selinger 2001-2013
</metadata>
<g transform="translate(0.000000,500.000000) scale(0.100000,-0.100000)"
fill="#000000" stroke="none">
<path d="M0 2500 l0 -2500 1208 0 1207 0 21 73 c20 70 35 86 61 69 10 -6 9
-18 -2 -54 -7 -26 -11 -56 -8 -67 l5 -21 1254 0 1254 0 0 2500 0 2500 -2500 0
-2500 0 0 -2500z m2300 1070 c11 -6 22 -26 25 -48 10 -56 25 -82 51 -82 12 0
36 -12 53 -26 35 -29 41 -72 16 -98 -14 -14 -13 -16 10 -22 14 -3 39 -4 54 -1
16 4 43 2 60 -3 38 -11 52 6 22 26 -28 20 -27 32 4 44 26 10 31 25 15 50 -6
10 -10 11 -10 3 0 -7 -6 -13 -14 -13 -21 0 -24 20 -12 64 14 50 54 81 92 72
20 -5 24 -10 15 -16 -11 -6 -10 -10 3 -17 10 -6 20 -32 27 -73 9 -58 8 -67
-13 -107 -19 -36 -21 -46 -10 -63 7 -11 10 -30 7 -43 -7 -25 49 -185 70 -202
7 -6 25 -35 40 -64 29 -58 36 -67 74 -93 l24 -17 -35 -14 c-20 -8 -64 -45 -99
-82 -91 -95 -274 -200 -359 -206 -64 -4 -80 0 -91 25 -8 18 -7 30 5 54 9 17
16 46 16 65 0 30 -4 35 -30 41 -17 3 -52 26 -79 51 -26 25 -52 45 -57 45 -21
1 -102 99 -129 158 -13 27 -21 32 -49 32 -35 0 -61 18 -89 63 -20 32 -15 35
14 8 11 -10 33 -21 47 -24 28 -5 46 2 25 10 -7 3 -13 11 -13 18 0 20 40 30
133 34 16 1 26 5 22 11 -4 6 -19 9 -33 8 -15 -1 -32 1 -38 4 -6 4 -30 2 -54
-4 -38 -10 -45 -9 -56 7 -23 32 -16 36 51 29 42 -4 65 -3 65 4 0 14 -25 22
-94 32 -40 6 -63 15 -70 27 -12 20 -46 149 -46 175 0 37 101 83 201 90 34 3
63 11 73 21 9 8 25 19 36 22 11 3 20 10 20 15 0 5 15 11 33 13 17 2 38 5 45 5
7 1 22 -3 32 -8z m192 -222 c-7 -7 -12 -8 -12 -2 0 14 12 26 19 19 2 -3 -1
-11 -7 -17z m508 -578 c8 -5 12 -11 10 -14 -3 -2 -14 2 -24 10 -22 15 -10 19
14 4z m158 -120 c7 0 12 -5 12 -10 0 -7 -6 -7 -19 0 -11 5 -32 11 -48 11 -24
2 -25 2 -5 6 20 4 21 7 10 21 -7 9 -1 7 13 -5 14 -13 31 -23 37 -23z m182
-142 c0 -13 -23 -5 -28 10 -2 7 2 10 12 6 9 -3 16 -11 16 -16z m10 -109 c0 -6
-4 -7 -10 -4 -5 3 -10 11 -10 16 0 6 5 7 10 4 6 -3 10 -11 10 -16z m40 -72 c0
-16 -18 3 -23 25 -6 22 -5 22 8 4 8 -11 15 -24 15 -29z m34 -63 c3 -8 2 -12
-4 -9 -6 3 -10 10 -10 16 0 14 7 11 14 -7z m-865 -56 c20 -18 21 -23 10 -32
-8 -6 -22 -21 -33 -33 -15 -19 -16 -25 -6 -38 7 -8 21 -15 32 -15 24 0 79 -54
101 -100 18 -37 30 -57 60 -102 26 -39 19 -69 -18 -81 -16 -6 -33 -16 -38 -23
-11 -19 -66 -44 -97 -44 -15 0 -53 9 -85 20 -62 21 -77 21 -50 -1 9 -8 27 -24
40 -36 12 -13 27 -23 32 -23 6 0 16 -6 22 -13 12 -15 44 -243 36 -257 -3 -5 0
-12 6 -15 7 -5 8 -24 5 -54 -4 -25 -7 -71 -8 -101 -1 -30 -7 -63 -14 -73 -6
-10 -10 -26 -7 -37 3 -10 0 -21 -5 -24 -14 -8 -3 -46 14 -46 48 0 209 54 299
101 113 58 209 111 223 122 16 12 10 65 -12 117 -14 34 -27 110 -46 265 -5 39
-9 77 -10 86 0 19 59 67 87 72 10 1 23 5 28 9 17 10 105 18 131 12 13 -3 24
-12 24 -19 0 -16 32 -25 86 -25 23 0 46 -6 51 -12 22 -28 41 -228 43 -460 1
-130 -1 -242 -5 -248 -4 -7 -12 -7 -24 0 -16 8 -20 3 -33 -37 -13 -39 -21 -49
-51 -59 -22 -8 -39 -9 -42 -3 -4 5 -1 9 6 9 10 0 10 3 1 12 -8 8 -15 8 -24 1
-7 -6 -42 -21 -78 -33 -36 -12 -74 -26 -85 -30 -11 -5 -51 -14 -90 -20 -38 -6
-83 -16 -100 -21 -16 -5 -52 -11 -78 -15 -27 -3 -59 -9 -71 -13 -12 -5 -87 -9
-166 -9 -80 0 -158 -5 -175 -10 l-30 -9 40 -6 c22 -4 103 -11 180 -17 77 -6
199 -17 270 -25 221 -25 333 -34 529 -45 188 -11 219 -16 196 -30 -6 -4 12
-10 41 -14 28 -4 88 -16 133 -26 73 -17 280 -49 428 -65 51 -6 78 -18 66 -30
-2 -2 -64 5 -138 16 -74 11 -189 26 -255 35 -66 8 -139 21 -163 29 -23 8 -60
15 -82 15 -44 0 -72 9 -65 20 5 9 -3 10 -320 35 -110 9 -252 22 -315 30 -140
17 -252 26 -227 19 17 -5 17 -8 4 -22 -21 -23 -34 -94 -17 -90 7 2 15 -3 17
-9 3 -7 -2 -13 -11 -13 -10 0 -16 -10 -17 -27 -1 -16 -2 -48 -3 -73 -1 -25 -5
-79 -9 -120 -3 -41 -9 -115 -12 -163 -3 -49 -8 -94 -11 -102 -7 -17 -67 -28
-106 -20 -29 7 -30 9 -23 49 8 53 13 114 18 256 3 63 7 122 10 130 4 8 7 26 9
40 2 19 10 26 35 30 l32 5 -3 62 c-1 36 2 65 8 68 6 3 -34 3 -89 0 -55 -3
-156 -8 -225 -12 -83 -4 -129 -11 -138 -20 -7 -7 -32 -13 -55 -13 -23 0 -77
-5 -120 -12 -74 -11 -78 -11 -92 9 -8 11 -27 24 -42 28 -16 3 -35 12 -43 20
-8 7 -31 15 -51 19 -28 5 -42 2 -62 -14 -16 -13 -44 -22 -69 -23 -67 -3 -61
21 23 82 39 29 69 55 66 58 -6 5 -125 -32 -162 -51 -27 -14 -55 -41 -55 -53 0
-5 -9 -19 -20 -31 -22 -23 -7 -23 -325 -10 -5 0 -32 -5 -60 -10 -43 -9 -140
-16 -182 -13 -7 1 -13 12 -13 25 0 16 21 45 63 87 58 58 69 65 128 78 35 7 74
20 87 28 12 7 27 11 31 8 5 -3 17 2 26 11 13 13 27 15 68 10 29 -4 77 -9 107
-12 l55 -6 62 61 c34 34 74 83 89 109 29 50 57 82 72 82 26 0 60 97 87 250 22
124 56 262 68 278 6 7 33 12 69 12 52 0 60 -3 67 -22 5 -13 6 -29 3 -36 -2 -7
9 -28 25 -45 63 -67 74 -98 50 -131 -12 -17 -15 -17 -29 -2 -15 14 -16 10 -11
-44 4 -36 2 -60 -4 -60 -5 0 -15 -29 -22 -65 -16 -87 -26 -111 -54 -130 -17
-11 -31 -13 -48 -7 -31 11 -59 4 -59 -14 0 -13 14 -15 77 -13 69 2 78 0 86
-18 9 -22 -10 -170 -21 -159 -8 9 -32 -14 -32 -31 0 -12 18 -14 93 -12 68 1
100 -3 123 -15 46 -24 67 -51 62 -80 -6 -32 6 -36 90 -35 47 1 58 3 37 8 -27
5 -30 11 -32 45 -1 21 2 47 8 58 7 14 7 23 -1 33 -17 21 -4 34 46 46 l45 12
-43 43 c-24 24 -50 62 -59 86 l-17 43 1 -50 c1 -58 -10 -86 -24 -64 -7 11 -9
9 -10 -6 -1 -11 -1 -26 0 -33 2 -8 -5 -12 -16 -10 -10 2 -25 24 -38 56 -11 28
-23 52 -26 52 -8 0 -21 -55 -22 -97 l0 -33 -59 0 c-32 0 -58 3 -58 6 0 3 9 13
20 22 11 10 27 49 39 92 30 120 33 144 16 165 -8 11 -15 23 -15 28 0 4 35 7
78 7 80 -1 113 -13 104 -40 -4 -12 -3 -13 10 -2 19 15 31 94 19 124 -5 13 -21
36 -35 52 -14 16 -26 33 -26 38 0 4 -5 8 -11 8 -6 0 -8 -7 -5 -16 12 -31 -7
-36 -20 -5 -14 34 -40 41 -48 14 -3 -10 -8 -39 -12 -65 -5 -42 -4 -48 12 -49
36 -2 59 3 75 17 15 13 17 12 22 -7 3 -13 4 -26 1 -31 -3 -4 -54 -8 -115 -8
-90 0 -109 3 -109 15 0 8 6 15 14 15 10 0 17 17 21 55 4 31 5 58 3 61 -3 2 0
32 7 67 6 34 8 75 4 90 -8 30 7 44 36 34 28 -11 24 10 -6 37 -43 39 -35 60 23
64 41 3 49 7 72 42 31 47 34 61 40 180 6 106 12 116 78 127 21 3 41 10 44 14
3 5 10 7 15 4 5 -4 19 1 31 9 31 22 70 20 97 -6z m-423 -271 c34 -68 -2 -79
-39 -13 -23 42 -24 46 -9 67 l16 23 9 -25 c5 -13 15 -37 23 -52z m2254 -1467
c12 -8 12 -10 -5 -11 -44 -2 -90 3 -99 12 -13 12 85 12 104 -1z"/>
<path d="M2226 3285 c-50 -17 -90 -47 -94 -69 -4 -21 36 -22 45 -1 3 9 35 31
72 50 49 25 60 34 41 34 -14 0 -43 -6 -64 -14z"/>
<path d="M2297 3214 c-15 -13 -36 -24 -47 -24 -25 0 -50 -10 -50 -21 0 -5 18
-9 39 -9 29 0 44 6 54 21 8 11 23 20 34 19 29 -4 43 -1 43 9 0 5 -9 7 -19 4
-12 -3 -20 1 -23 10 -2 13 -9 11 -31 -9z"/>
<path d="M2558 2995 c-10 -13 -18 -28 -18 -33 0 -10 -55 -52 -70 -52 -15 0
-13 -100 3 -100 7 -1 5 -6 -5 -14 -10 -7 -18 -20 -18 -29 0 -10 -20 -23 -51
-35 -63 -23 -53 -33 40 -40 l66 -4 48 66 c26 36 47 69 47 73 0 4 18 24 40 44
42 39 50 71 30 110 -14 26 -29 24 -40 -6 -11 -29 -35 -34 -27 -6 3 11 -2 26
-12 35 -14 13 -18 12 -33 -9z"/>
<path d="M2181 2959 c-16 -6 -21 -13 -14 -20 6 -6 24 -3 54 10 42 19 43 20 14
20 -16 0 -41 -5 -54 -10z"/>
<path d="M2305 2879 l-40 -20 35 7 c19 3 40 10 45 14 6 4 19 10 30 13 16 4 15
5 -5 5 -14 0 -43 -8 -65 -19z"/>
<path d="M2220 2850 c0 -5 7 -10 15 -10 8 0 15 5 15 10 0 6 -7 10 -15 10 -8 0
-15 -4 -15 -10z"/>
<path d="M2216 1665 c-9 -23 -8 -85 2 -85 15 0 52 31 52 44 0 7 -11 23 -24 35
-21 19 -24 20 -30 6z"/>
<path d="M2249 1338 c-2 -6 -8 -46 -14 -85 -6 -38 -4 -42 12 -37 30 11 43 35
43 81 0 36 -3 43 -20 43 -11 0 -20 -1 -21 -2z"/>
<path d="M2307 1243 c-11 -38 -13 -61 -7 -67 7 -7 10 0 10 21 0 16 5 44 11 62
6 18 9 34 7 37 -3 2 -12 -21 -21 -53z"/>
<path d="M1837 1117 c-20 -8 -27 -17 -24 -29 6 -21 9 -20 -66 -22 -55 -2 -61
-5 -92 -42 -18 -21 -29 -41 -23 -43 12 -4 129 28 143 40 13 10 67 4 94 -10 11
-6 35 -11 54 -11 28 0 37 5 46 28 6 15 9 36 7 47 -5 37 -89 62 -139 42z"/>
<path d="M1365 940 c-3 -5 -2 -10 4 -10 5 0 13 5 16 10 3 6 2 10 -4 10 -5 0
-13 -4 -16 -10z"/>
<path d="M1297 922 c-33 -4 -82 -70 -73 -99 5 -16 17 -18 75 -18 55 0 68 3 66
15 -2 8 -4 32 -4 53 -1 25 -6 37 -15 37 -8 0 -16 3 -18 8 -1 4 -16 6 -31 4z"/>
<path d="M1073 846 c-42 -44 -24 -51 34 -13 12 7 7 37 -6 37 -3 0 -16 -11 -28
-24z"/>
<path d="M2163 783 c9 -2 23 -2 30 0 6 3 -1 5 -18 5 -16 0 -22 -2 -12 -5z"/>
</g>
</svg>
